# xmcd CD database file
#
# Track frame offsets:
#	150
#	10820
#	26558
#	38743
#	55141
#	66554
#	81495
#	101261
#	118088
#	134329
#	150634
#	171344
#	188129
#	201737
#
# Disc length: 2838 seconds
#
# Revision: 0
# Processed by: cddbd v1.5.2PL0 Copyright (c) Steve Scherf et al.
# Submitted via: CDex 1.51
#
DISCID=c60b140e
DTITLE=Lightnin' Guy - Blood For Kali
DYEAR=2012
DGENRE=Blues
TTITLE0=Blood For Kali
TTITLE1=99%
TTITLE2=Hangover Man
TTITLE3=Runnin' Back To You
TTITLE4=Enracine' Dans Le Vent
TTITLE5=Voodoo Child
TTITLE6=Yser
TTITLE7=Don`t You Cry
TTITLE8=Bring It On Home To Me
TTITLE9=Reckonin' Blues
TTITLE10=Against The Grain
TTITLE11=Lovestrong Revivited
TTITLE12=Consolin' Blues
TTITLE13=Boogie Train
EXTD=YEAR: 2012
EXTT0=
EXTT1=
EXTT2=
EXTT3=
EXTT4=
EXTT5=
EXTT6=
EXTT7=
EXTT8=
EXTT9=
EXTT10=
EXTT11=
EXTT12=
EXTT13=
PLAYORDER=
